<svg width="21" height="15" viewBox="0 0 21 15" fill="none" xmlns="http://www.w3.org/2000/svg">
<path d="M1.30417 6.34853H0.217212V8.52244H1.30417V6.34853ZM18.5143 7.43548L19.137 8.32637L20.4508 7.40806L19.1115 6.52732L18.5143 7.43548ZM13.6633 1.18652L13.2839 0.167927L11.2467 0.926723L11.6261 1.94532L13.6633 1.18652ZM11.6904 12.7846L11.17 13.7389L13.0786 14.7797L13.599 13.8255L11.6904 12.7846ZM1.30417 8.52244H18.5143V6.34853H1.30417V8.52244ZM11.6261 1.94532C11.9419 2.79316 12.5331 3.61013 13.1657 4.32571C13.8093 5.05378 14.5545 5.74177 15.2499 6.3291C15.9477 6.91849 16.611 7.41958 17.0991 7.77302C17.3437 7.95011 17.5456 8.09105 17.6875 8.18848C17.7584 8.23721 17.8145 8.27512 17.8534 8.30127C17.8729 8.31435 17.8881 8.3245 17.8988 8.3316C17.9042 8.33515 17.9084 8.33793 17.9114 8.33995C17.9129 8.34095 17.9142 8.34177 17.9151 8.34238C17.9156 8.34269 17.916 8.34295 17.9163 8.34316C17.9165 8.34327 17.9166 8.34339 17.9167 8.34344C17.9169 8.34355 17.917 8.34364 18.5143 7.43548C19.1115 6.52732 19.1117 6.52739 19.1117 6.52745C19.1118 6.52746 19.1118 6.5275 19.1118 6.52751C19.1119 6.52753 19.1118 6.52749 19.1117 6.52741C19.1114 6.52725 19.1109 6.52689 19.1101 6.52635C19.1084 6.52525 19.1056 6.5234 19.1017 6.5208C19.0939 6.51559 19.0816 6.5074 19.0651 6.49633C19.0321 6.47419 18.9824 6.44057 18.918 6.39638C18.7892 6.30796 18.6023 6.17747 18.374 6.01221C17.9165 5.68093 17.2983 5.21363 16.6526 4.6683C16.0045 4.1209 15.3442 3.50784 14.7944 2.88586C14.2335 2.2514 13.8432 1.66934 13.6633 1.18652L11.6261 1.94532ZM18.5143 7.43548C17.8916 6.5446 17.8914 6.54469 17.8913 6.5448C17.8912 6.54485 17.891 6.54497 17.8909 6.54507C17.8906 6.54528 17.8902 6.54553 17.8898 6.54582C17.889 6.54642 17.8878 6.54719 17.8865 6.54815C17.8838 6.55007 17.88 6.55272 17.8752 6.55608C17.8657 6.56281 17.8521 6.57242 17.8347 6.5848C17.8 6.60955 17.75 6.64543 17.6865 6.69164C17.5595 6.78404 17.3782 6.91795 17.1566 7.08714C16.714 7.42503 16.1071 7.90621 15.4488 8.48061C14.1606 9.60458 12.5669 11.1775 11.6904 12.7846L13.599 13.8255C14.2795 12.5776 15.6206 11.2157 16.878 10.1187C17.4924 9.58254 18.061 9.13164 18.4757 8.81509C18.6827 8.65706 18.8505 8.53315 18.9654 8.44954C19.0229 8.40775 19.067 8.37607 19.0962 8.35527C19.1108 8.34488 19.1216 8.3372 19.1285 8.33235C19.132 8.32993 19.1344 8.32821 19.1358 8.32721C19.1365 8.3267 19.137 8.32638 19.1372 8.32624C19.1373 8.32617 19.1373 8.32615 19.1373 8.32617C19.1373 8.32618 19.1372 8.32623 19.1372 8.32623C19.1371 8.32629 19.137 8.32637 18.5143 7.43548Z" fill="#1E1E1E"/>
</svg>
