<svg width="16" height="16" viewBox="0 0 16 16" fill="none" xmlns="http://www.w3.org/2000/svg">
<path d="M12.2949 9.90911C12.0977 10.1003 12.007 10.3767 12.052 10.6479L12.7291 14.395C12.7862 14.7126 12.6521 15.034 12.3863 15.2176C12.1259 15.408 11.7793 15.4308 11.4952 15.2785L8.12207 13.5192C8.00478 13.4567 7.87455 13.4232 7.74127 13.4194H7.53487C7.46328 13.4301 7.39321 13.4529 7.32924 13.4879L3.9553 15.2557C3.78851 15.3394 3.59963 15.3691 3.41456 15.3394C2.96369 15.2541 2.66285 14.8246 2.73673 14.3714L3.41456 10.6243C3.4595 10.3509 3.36886 10.0729 3.17161 9.87865L0.421435 7.21299C0.191428 6.98983 0.111459 6.65472 0.216561 6.35236C0.318617 6.05076 0.579088 5.83065 0.893633 5.78115L4.67883 5.23202C4.96672 5.20232 5.21958 5.02715 5.34905 4.7682L7.01698 1.34854C7.05658 1.27238 7.10761 1.20231 7.1693 1.1429L7.23784 1.08959C7.27364 1.04998 7.31477 1.01723 7.36046 0.990577L7.44348 0.960113L7.57295 0.906799H7.89359C8.17995 0.936502 8.43205 1.10787 8.56381 1.36377L10.2538 4.7682C10.3757 5.01725 10.6125 5.19013 10.886 5.23202L14.6712 5.78115C14.991 5.82685 15.2584 6.04771 15.3642 6.35236C15.464 6.65777 15.3779 6.99288 15.1434 7.21299L12.2949 9.90911Z" fill="#8D8D8D" fill-opacity="0.5"/>
</svg>
